<svg width="501" height="501" viewBox="0 0 501 501" fill="none" xmlns="http://www.w3.org/2000/svg">
<g filter="url(#filter0_d)">
<g clip-path="url(#clip0)">
<path d="M250.47 0C114.34 0 4 110.34 4 246.47C4 382.6 114.34 492.94 250.47 492.94C386.6 492.94 496.94 382.6 496.94 246.47C496.94 110.34 386.6 0 250.47 0V0ZM239.876 42.156V120.968C217.818 120.29 195.542 118.163 173.064 114.624C181.901 92.3642 192.479 69.8342 204.689 47.0302C216.083 44.4263 227.845 42.7687 239.877 42.1552L239.876 42.156ZM261.064 42.156C273.095 42.7695 284.857 44.4271 296.252 47.031C308.679 70.249 319.414 93.192 328.346 115.843C306.142 119.146 283.718 120.939 261.065 121.187V42.1558L261.064 42.156ZM178.908 54.75C168.749 73.696 159.826 92.43 152.189 110.938C137.313 108.028 122.344 104.516 107.283 100.376C127.522 80.537 151.851 64.855 178.908 54.751V54.75ZM322.028 54.75C349.493 65.006 374.141 81.016 394.559 101.281C379.574 105.668 364.473 109.343 349.278 112.281C341.52 93.337 332.426 74.155 322.028 54.75V54.75ZM92.248 116.75C109.837 121.815 127.374 126.172 144.873 129.719C131.503 165.989 123.138 201.384 120.029 235.879H46.154C48.4543 190.766 65.363 149.51 92.248 116.759V116.75ZM409.498 117.75C435.912 150.345 452.502 191.218 454.779 235.87H380.904C377.848 201.964 369.723 167.183 356.748 131.56C374.391 127.976 391.977 123.389 409.498 117.748V117.75ZM165.938 133.625C190.69 137.758 215.324 140.294 239.876 141.125V235.875H142.438C145.62 202.541 153.589 168.445 165.938 133.625ZM335.628 135.344C347.629 169.563 355.373 203.094 358.503 235.874H261.065V141.405C286.029 141.239 310.89 139.244 335.627 135.342L335.628 135.344ZM46.158 257.064H118.783C117.778 293.611 122.831 329.108 134.252 363.504C119.944 366.721 105.668 370.64 91.44 375.223C65.018 342.625 48.436 301.733 46.159 257.063L46.158 257.064ZM141.096 257.064H239.877V351.533C211.243 351.723 182.743 354.31 154.408 359.439C144.15 326.258 139.899 292.103 141.096 257.059V257.064ZM261.066 257.064H359.847C361.065 292.743 356.608 327.5 345.941 361.254C317.516 355.977 289.229 352.769 261.066 351.816V257.066V257.064ZM382.156 257.064H454.781C452.481 302.161 435.587 343.407 408.719 376.154C394.472 372.046 380.245 368.42 366.063 365.31C377.913 330.351 383.18 294.25 382.157 257.06L382.156 257.064ZM239.876 371.754V450.785C224.308 449.991 209.21 447.493 194.751 443.41C194.748 443.409 194.754 443.379 194.751 443.379C180.758 422.354 169.628 400.859 161.189 378.941C187.11 374.458 213.339 372.044 239.877 371.753L239.876 371.754ZM261.064 371.973C286.84 372.765 312.901 375.524 339.252 380.223C330.867 401.711 319.86 422.781 306.127 443.411C291.686 447.484 276.612 449.993 261.065 450.786V371.974L261.064 371.973ZM141.374 382.785C148.358 399.958 156.992 416.841 167.28 433.441C144.465 423.273 123.865 409.02 106.374 391.66C117.98 388.266 129.642 385.314 141.374 382.785ZM359.034 384.097C370.516 386.556 382.067 389.408 393.659 392.597C376.368 409.542 356.072 423.452 333.659 433.441C343.685 417.266 352.148 400.816 359.034 384.097Z" fill="white"/>
</g>
</g>
<defs>
<filter id="filter0_d" x="0" y="0" width="500.94" height="500.94" filterUnits="userSpaceOnUse" color-interpolation-filters="sRGB">
<feFlood flood-opacity="0" result="BackgroundImageFix"/>
<feColorMatrix in="SourceAlpha" type="matrix" values="0 0 0 0 0 0 0 0 0 0 0 0 0 0 0 0 0 0 127 0"/>
<feOffset dy="4"/>
<feGaussianBlur stdDeviation="2"/>
<feColorMatrix type="matrix" values="0 0 0 0 0 0 0 0 0 0 0 0 0 0 0 0 0 0 0.25 0"/>
<feBlend mode="normal" in2="BackgroundImageFix" result="effect1_dropShadow"/>
<feBlend mode="normal" in="SourceGraphic" in2="effect1_dropShadow" result="shape"/>
</filter>
<clipPath id="clip0">
<rect x="4" width="492.94" height="492.94" fill="white"/>
</clipPath>
</defs>
</svg>
